<?xml version="1.0" standalone="no"?>
<!DOCTYPE svg PUBLIC "-//W3C//DTD SVG 20010904//EN"
 "http://www.w3.org/TR/2001/REC-SVG-20010904/DTD/svg10.dtd">
<svg version="1.0" xmlns="http://www.w3.org/2000/svg"
 width="512.000000pt" height="512.000000pt" viewBox="0 0 512.000000 512.000000"
 preserveAspectRatio="xMidYMid meet">

<g transform="translate(0.000000,512.000000) scale(0.100000,-0.100000)"
fill="#084892" stroke="none">
<path d="M2361 5104 c-432 -73 -799 -391 -936 -811 -50 -153 -55 -211 -55
-683 l0 -437 23 -34 c35 -53 82 -79 139 -79 66 0 114 24 146 73 l27 40 6 456
c5 432 6 460 27 529 48 160 159 330 275 422 127 101 229 149 382 181 378 79
769 -118 934 -471 74 -160 74 -154 80 -650 6 -425 7 -447 27 -480 58 -99 187
-116 268 -35 56 55 59 93 53 545 -5 351 -8 406 -26 493 -55 254 -174 465 -358
637 -268 250 -649 365 -1012 304z"/>
<path d="M1073 2716 c-191 -47 -352 -221 -383 -416 -13 -86 -13 -1769 0 -1863
30 -208 204 -389 411 -427 37 -7 539 -9 1495 -8 l1439 3 57 22 c179 68 312
229 338 409 13 93 13 1765 0 1859 -29 202 -198 382 -398 424 -81 17 -2889 14
-2959 -3z m2950 -359 c77 -58 72 8 75 -947 2 -470 0 -878 -3 -907 -8 -67 -39
-112 -95 -141 l-44 -22 -1396 0 c-1332 0 -1397 1 -1435 19 -49 22 -73 48 -91
98 -20 56 -20 1760 0 1816 18 50 42 76 91 98 38 18 99 19 1451 16 l1411 -2 36
-28z"/>
<path d="M2484 1676 c-17 -8 -44 -31 -60 -52 l-29 -37 -3 -206 c-2 -128 1
-220 7 -242 6 -21 29 -53 50 -72 67 -60 152 -62 218 -4 58 51 63 73 63 294 0
223 -9 260 -71 303 -40 29 -129 37 -175 16z"/>
</g>
</svg>
