<?xml version="1.0" standalone="no"?>
<!DOCTYPE svg PUBLIC "-//W3C//DTD SVG 20010904//EN"
 "http://www.w3.org/TR/2001/REC-SVG-20010904/DTD/svg10.dtd">
<svg version="1.0" xmlns="http://www.w3.org/2000/svg"
 width="20.000000pt" height="20.000000pt" viewBox="0 0 512.000000 512.000000"
 preserveAspectRatio="xMidYMid meet">

<g transform="translate(0.000000,512.000000) scale(0.100000,-0.100000)"
fill="#fff" stroke="none">
<path d="M3635 5106 c-16 -8 -193 -178 -392 -377 -319 -321 -362 -369 -369
-402 -15 -84 -30 -67 683 -779 598 -597 672 -667 706 -674 81 -14 87 -9 479
383 316 317 367 373 373 405 16 84 38 58 -668 767 -383 383 -676 669 -694 677
-40 17 -79 17 -118 0z"/>
<path d="M1985 3629 c-385 -193 -716 -362 -736 -375 -20 -14 -42 -37 -49 -52
-24 -50 -1190 -2966 -1187 -2968 2 -2 409 403 906 900 l904 904 -17 44 c-10
23 -20 75 -23 113 -18 233 149 440 382 476 236 37 465 -132 506 -373 47 -280
-190 -536 -476 -515 -38 3 -90 13 -113 23 l-44 17 -904 -904 c-497 -497 -902
-904 -900 -906 3 -3 2917 1162 2961 1184 16 8 38 25 48 37 10 11 180 345 378
740 l361 719 -644 644 c-353 353 -645 643 -648 642 -3 0 -320 -158 -705 -350z"/>
<path d="M2161 2358 c-58 -31 -84 -77 -78 -141 13 -150 204 -188 275 -56 69
129 -68 266 -197 197z"/>
</g>
</svg>
