<?xml version="1.0" standalone="no"?>
<!DOCTYPE svg PUBLIC "-//W3C//DTD SVG 20010904//EN"
 "http://www.w3.org/TR/2001/REC-SVG-20010904/DTD/svg10.dtd">
<svg version="1.0" xmlns="http://www.w3.org/2000/svg"
 width="20.000000pt" height="20.000000pt" viewBox="0 0 512.000000 512.000000"
 preserveAspectRatio="xMidYMid meet">

<g transform="translate(0.000000,512.000000) scale(0.100000,-0.100000)"
fill="#fff" stroke="none">
<path d="M2565 5106 c-16 -8 -577 -562 -1246 -1232 -946 -948 -1223 -1232
-1248 -1275 -17 -32 -40 -92 -51 -135 -35 -136 -23 -248 42 -384 l40 -85 947
-946 946 -947 85 -40 c136 -65 248 -77 384 -42 43 11 101 32 129 47 40 21 330
304 1276 1247 721 720 1229 1234 1237 1253 12 27 14 200 14 1046 0 977 -1
1017 -20 1091 -27 107 -63 169 -145 251 -81 82 -143 118 -251 145 -74 19 -113
20 -1093 20 -835 -1 -1021 -3 -1046 -14z m2090 -303 c29 -9 66 -33 90 -58 79
-79 75 -18 75 -1099 l0 -961 -1177 -1176 c-1126 -1125 -1180 -1177 -1232
-1194 -62 -20 -140 -16 -192 10 -47 24 -1865 1840 -1891 1889 -29 56 -34 132
-13 197 17 52 69 106 1194 1232 l1176 1177 961 0 c868 0 965 -2 1009 -17z"/>
<path d="M3688 4254 c-212 -51 -358 -236 -358 -453 0 -267 204 -471 471 -471
181 0 344 103 420 265 169 358 -150 752 -533 659z m175 -298 c130 -54 140
-243 16 -306 -83 -43 -174 -18 -227 60 -20 29 -23 45 -20 95 4 74 30 114 90
144 50 24 95 27 141 7z"/>
</g>
</svg>
